<?xml version="1.0" encoding="iso-8859-1"?>
<!-- Generator: Adobe Illustrator 22.1.0, SVG Export Plug-In . SVG Version: 6.00 Build 0)  -->
<svg version="1.1" id="&#x421;&#x43B;&#x43E;&#x439;_1"
	 xmlns="http://www.w3.org/2000/svg" xmlns:xlink="http://www.w3.org/1999/xlink" x="0px" y="0px" viewBox="0 0 126 80"
	 style="enable-background:new 0 0 126 80;" xml:space="preserve">
<g>
	<g>
		<defs>
			<rect id="SVGID_1_" x="-0.388" width="126" height="80"/>
		</defs>
		<clipPath id="SVGID_2_">
			<use xlink:href="#SVGID_1_"  style="overflow:visible;"/>
		</clipPath>
		<path style="clip-path:url(#SVGID_2_);fill:none;stroke:#B48A38;stroke-width:0.5;stroke-miterlimit:7.7949;" d="M5.449,34.943
			v21.09c0,2.092-0.649,3.138-1.946,3.138c-0.406,0-0.851-0.105-1.338-0.316v9.56c1.151,0.373,2.157,0.559,3.017,0.559
			c2.935,0,5.36-1.098,7.274-3.296c1.913-2.197,2.871-4.982,2.871-8.356V34.943H5.449L5.449,34.943z M31.576,59.681
			c-0.973,0-1.776-0.324-2.408-0.973c-0.632-0.648-0.949-1.475-0.949-2.481c0-0.957,0.349-1.784,1.046-2.481
			c0.697-0.697,1.524-1.046,2.481-1.046c1.054,0,1.893,0.381,2.518,1.143c0.624,0.762,0.937,1.784,0.937,3.065v11.238h9.098V56.252
			c0-3.973-1.131-7.107-3.394-9.402c-2.262-2.295-5.356-3.442-9.281-3.442c-3.519,0-6.507,1.225-8.964,3.673
			c-2.457,2.449-3.685,5.433-3.685,8.952c0,3.616,1.216,6.625,3.649,9.025c2.433,2.4,5.473,3.6,9.122,3.6
			c0.616,0,1.297-0.065,2.044-0.195v-9.414C33.108,59.471,32.37,59.681,31.576,59.681L31.576,59.681L31.576,59.681z M48.287,43.894
			v9.487h7.687l-7.395,14.766h23.378v-9.536h-8.563l7.444-14.717H48.287L48.287,43.894z M75.943,43.894v9.487h7.687l-7.395,14.766
			h23.377v-9.536H91.05l7.444-14.717H75.943L75.943,43.894z M112.092,79.75c3.844,0,7.119-1.476,9.828-4.427
			c2.27-2.481,3.406-5.741,3.406-9.779v-21.65h-9.099v12.819c0,1.59-0.575,2.384-1.727,2.384c-1.2,0-1.8-0.721-1.8-2.165V43.894
			h-9.098v15.252c0,2.595,0.73,4.731,2.189,6.41c1.46,1.678,3.317,2.518,5.571,2.518c1.524,0,3.081-0.47,4.671-1.411
			c-0.876,3.324-2.79,4.987-5.741,4.987c-0.925,0-2.003-0.26-3.236-0.778v7.906C108.727,79.425,110.405,79.75,112.092,79.75
			L112.092,79.75L112.092,79.75z M48.193,13.342v24.252h9.098V13.342H48.193L48.193,13.342z M49.568,3.818
			c-0.9,0.868-1.35,1.894-1.35,3.077c0,1.265,0.426,2.303,1.277,3.114c0.851,0.811,1.942,1.216,3.272,1.216
			c1.329,0,2.42-0.405,3.272-1.216c0.851-0.811,1.277-1.849,1.277-3.114c0-1.184-0.45-2.209-1.35-3.077
			c-0.9-0.867-1.967-1.301-3.199-1.301C51.534,2.517,50.468,2.951,49.568,3.818L49.568,3.818z M62.642,4.39v19.922
			c0,3.454,0.697,6.227,2.092,8.319c1.103,1.638,2.566,2.935,4.391,3.892c1.824,0.957,3.766,1.435,5.826,1.435
			c0.227,0,0.575-0.008,1.046-0.024v-9.56c-1.622,0-2.737-0.365-3.345-1.095c-0.608-0.73-0.912-2.059-0.912-3.989h4.087v-9.608
			H71.74V4.39H62.642L62.642,4.39z M85.444,13.722c0.61-0.775,0.915-1.664,0.915-2.666c0-0.964-0.312-1.773-0.936-2.425
			c-0.624-0.652-1.395-0.979-2.312-0.979c-0.946,0-1.737,0.324-2.375,0.971c-0.638,0.648-0.957,1.449-0.957,2.404
			c0,0.908,0.298,1.666,0.893,2.276c0.596,0.61,1.366,0.943,2.312,1v1.035C84.013,15.036,84.834,14.497,85.444,13.722L85.444,13.722
			z M96.607,13.682c-3.162,0-5.636,0.868-7.419,2.603c-1.022,0.989-1.699,1.987-2.031,2.992c-0.333,1.006-0.564,2.749-0.693,5.23
			c-0.097,1.525-0.458,2.591-1.082,3.199c-0.625,0.608-1.666,0.912-3.126,0.912h-0.414v9.633h1.265c3.13,0,5.546-0.503,7.249-1.508
			c3.211-1.93,5.027-5.238,5.449-9.925c0.13-1.411,0.434-2.355,0.912-2.834c0.478-0.478,1.358-0.718,2.639-0.718v-9.584H96.607
			L96.607,13.682z"/>
	</g>
	<path style="fill:#B48A38;" d="M2.932,32.426v21.092c0,2.092-0.649,3.138-1.946,3.138c-0.406,0-0.851-0.105-1.338-0.316V65.9
		c1.151,0.373,2.157,0.56,3.017,0.56c2.935,0,5.36-1.099,7.274-3.296c1.914-2.197,2.871-4.983,2.871-8.356V32.426H2.932
		L2.932,32.426z M29.06,57.166c-0.973,0-1.776-0.324-2.408-0.973c-0.633-0.648-0.949-1.476-0.949-2.481
		c0-0.957,0.348-1.784,1.046-2.481c0.697-0.697,1.524-1.046,2.481-1.046c1.054,0,1.893,0.381,2.518,1.143
		c0.624,0.762,0.937,1.784,0.937,3.065v11.239h9.098V53.736c0-3.973-1.131-7.107-3.394-9.402c-2.262-2.295-5.356-3.442-9.281-3.442
		c-3.52,0-6.507,1.225-8.965,3.673c-2.457,2.449-3.686,5.433-3.686,8.952c0,3.617,1.216,6.625,3.649,9.025
		c2.433,2.4,5.474,3.6,9.123,3.6c0.616,0,1.297-0.065,2.043-0.195v-9.415C30.592,56.956,29.854,57.166,29.06,57.166L29.06,57.166
		L29.06,57.166z M45.771,41.378v9.488h7.687l-7.395,14.767h23.378v-9.536h-8.563l7.444-14.718H45.771L45.771,41.378z M73.428,41.378
		v9.488h7.687L73.72,65.632h23.378v-9.536h-8.563l7.444-14.718H73.428L73.428,41.378z M109.578,77.236
		c3.843,0,7.119-1.476,9.828-4.428c2.27-2.481,3.406-5.741,3.406-9.78V41.378h-9.099v12.82c0,1.59-0.576,2.384-1.727,2.384
		c-1.2,0-1.8-0.721-1.8-2.165V41.378h-9.098v15.253c0,2.595,0.729,4.732,2.189,6.41c1.46,1.679,3.316,2.518,5.571,2.518
		c1.524,0,3.081-0.47,4.671-1.411c-0.876,3.325-2.79,4.987-5.742,4.987c-0.924,0-2.003-0.26-3.235-0.779v7.906
		C106.212,76.911,107.891,77.236,109.578,77.236L109.578,77.236L109.578,77.236z"/>
	<path style="fill:#B48A38;" d="M45.676,10.826V35.08h9.098V10.826H45.676L45.676,10.826z M47.051,1.302
		c-0.9,0.868-1.35,1.894-1.35,3.077c0,1.265,0.426,2.303,1.277,3.114c0.851,0.811,1.942,1.216,3.272,1.216
		c1.33,0,2.421-0.405,3.272-1.216c0.852-0.811,1.277-1.849,1.277-3.114c0-1.184-0.45-2.21-1.35-3.077C52.549,0.434,51.482,0,50.25,0
		C49.017,0,47.951,0.434,47.051,1.302L47.051,1.302z M60.126,1.873v19.924c0,3.454,0.697,6.228,2.092,8.32
		c1.103,1.638,2.566,2.936,4.391,3.892c1.825,0.957,3.767,1.435,5.826,1.435c0.227,0,0.575-0.008,1.046-0.024V25.86
		c-1.622,0-2.737-0.365-3.345-1.095c-0.608-0.73-0.912-2.06-0.912-3.99h4.087v-9.609h-4.087V1.873H60.126L60.126,1.873z
		 M82.929,11.206c0.61-0.775,0.915-1.664,0.915-2.666c0-0.964-0.312-1.773-0.936-2.425c-0.624-0.652-1.395-0.979-2.312-0.979
		c-0.946,0-1.737,0.324-2.376,0.971c-0.638,0.648-0.957,1.449-0.957,2.404c0,0.908,0.298,1.667,0.893,2.276
		c0.596,0.61,1.366,0.943,2.312,1v1.035C81.499,12.52,82.319,11.981,82.929,11.206L82.929,11.206z M94.093,11.166
		c-3.162,0-5.636,0.868-7.42,2.603c-1.022,0.99-1.699,1.987-2.031,2.992c-0.333,1.006-0.564,2.749-0.693,5.23
		c-0.097,1.525-0.458,2.591-1.082,3.199c-0.625,0.608-1.666,0.912-3.126,0.912h-0.413v9.634h1.265c3.13,0,5.546-0.503,7.249-1.508
		c3.211-1.93,5.027-5.238,5.449-9.925c0.13-1.411,0.434-2.355,0.912-2.834c0.478-0.478,1.358-0.718,2.639-0.718v-9.585H94.093
		L94.093,11.166z"/>
	<path style="fill:#FFFFFF;" d="M3.346,78.432c0.328,0.131,0.689,0.197,1.084,0.197c0.492,0,0.896-0.135,1.212-0.405
		c0.317-0.27,0.475-0.601,0.475-0.993c0-0.318-0.098-0.58-0.294-0.786c-0.196-0.206-0.459-0.357-0.788-0.452
		c0.125-0.042,0.241-0.094,0.346-0.156c0.105-0.063,0.205-0.14,0.299-0.233c0.094-0.093,0.168-0.207,0.221-0.343
		c0.053-0.136,0.08-0.286,0.08-0.451c0-0.387-0.15-0.706-0.449-0.957c-0.299-0.25-0.686-0.376-1.162-0.376
		c-0.355,0-0.67,0.05-0.944,0.15s-0.542,0.254-0.802,0.463l0.223,0.285c0.459-0.376,0.962-0.564,1.51-0.564
		c0.359,0,0.656,0.094,0.889,0.282c0.233,0.188,0.35,0.427,0.35,0.717c0,0.327-0.125,0.584-0.374,0.772
		c-0.249,0.188-0.569,0.282-0.958,0.282H3.717v0.327h0.539c0.464,0,0.826,0.092,1.085,0.275c0.26,0.183,0.39,0.436,0.39,0.758
		c0,0.318-0.122,0.575-0.367,0.772c-0.245,0.197-0.551,0.296-0.92,0.296c-0.357,0-0.677-0.059-0.958-0.177
		c-0.282-0.118-0.563-0.306-0.843-0.563l-0.243,0.278C2.702,78.099,3.018,78.301,3.346,78.432L3.346,78.432z M10.971,77.03
		c0.121,0.312,0.287,0.586,0.499,0.823c0.212,0.237,0.476,0.425,0.791,0.565c0.315,0.14,0.657,0.21,1.026,0.21
		c0.366,0,0.708-0.071,1.026-0.212c0.318-0.141,0.584-0.331,0.8-0.569c0.216-0.238,0.384-0.512,0.506-0.824
		c0.122-0.312,0.183-0.637,0.183-0.976c0-0.343-0.06-0.671-0.181-0.983c-0.121-0.312-0.288-0.586-0.501-0.821
		c-0.213-0.235-0.478-0.423-0.793-0.564c-0.315-0.14-0.657-0.21-1.026-0.21c-0.366,0-0.708,0.071-1.026,0.212
		c-0.318,0.142-0.584,0.331-0.798,0.567c-0.215,0.237-0.383,0.511-0.504,0.823c-0.122,0.312-0.183,0.637-0.183,0.976
		C10.79,76.39,10.851,76.718,10.971,77.03L10.971,77.03z M11.443,74.917c0.18-0.341,0.432-0.612,0.757-0.812
		c0.325-0.201,0.688-0.301,1.089-0.301c0.301,0,0.585,0.06,0.851,0.179c0.265,0.119,0.492,0.279,0.678,0.48
		c0.187,0.201,0.334,0.439,0.442,0.715c0.108,0.276,0.162,0.566,0.162,0.87c0,0.413-0.09,0.79-0.27,1.131
		c-0.18,0.341-0.432,0.612-0.758,0.812s-0.689,0.301-1.09,0.301c-0.401,0-0.765-0.101-1.092-0.303
		c-0.327-0.202-0.581-0.474-0.763-0.816c-0.182-0.342-0.273-0.717-0.273-1.125C11.173,75.635,11.263,75.258,11.443,74.917
		L11.443,74.917z M17.463,78.553c0.119,0.024,0.223,0.037,0.311,0.037c0.113,0,0.216-0.012,0.308-0.035
		c0.092-0.023,0.189-0.07,0.292-0.141c0.103-0.071,0.194-0.166,0.273-0.287c0.079-0.121,0.155-0.283,0.23-0.489
		c0.074-0.205,0.136-0.447,0.184-0.727c0.049-0.279,0.087-0.621,0.117-1.026c0.029-0.405,0.043-0.859,0.043-1.362v-0.626h2.327
		v4.644h0.372v-4.988h-3.057v0.957c0,0.482-0.014,0.918-0.042,1.308c-0.028,0.39-0.063,0.712-0.106,0.967s-0.097,0.477-0.162,0.664
		c-0.065,0.188-0.129,0.332-0.191,0.431c-0.063,0.1-0.133,0.179-0.21,0.238c-0.078,0.059-0.144,0.096-0.2,0.11
		c-0.056,0.014-0.117,0.021-0.184,0.021c-0.197,0-0.356-0.029-0.476-0.087l-0.115,0.31C17.248,78.502,17.343,78.529,17.463,78.553
		L17.463,78.553z M27.836,78.541V78.2h-3.214v-2.004h2.859v-0.341h-2.859v-1.958h3.179v-0.344h-3.548v4.988H27.836L27.836,78.541z
		 M30.25,78.541v-1.27l1.242-1.252l2.052,2.522h0.483l-2.271-2.786l2.177-2.202h-0.504L30.25,76.83v-3.277h-0.369v4.988H30.25
		L30.25,78.541z M35.927,77.353c0.212,0.393,0.508,0.704,0.889,0.932c0.38,0.228,0.803,0.343,1.27,0.343
		c0.415,0,0.777-0.074,1.085-0.221c0.308-0.147,0.608-0.363,0.898-0.649l-0.251-0.243c-0.267,0.262-0.533,0.457-0.8,0.584
		c-0.267,0.128-0.573,0.191-0.918,0.191c-0.292,0-0.569-0.058-0.83-0.174c-0.261-0.116-0.485-0.274-0.671-0.473
		c-0.187-0.199-0.334-0.438-0.443-0.715c-0.109-0.277-0.164-0.571-0.164-0.882c0-0.313,0.054-0.608,0.162-0.885
		c0.108-0.277,0.254-0.515,0.44-0.713c0.185-0.198,0.408-0.355,0.668-0.471c0.26-0.116,0.537-0.174,0.831-0.174
		c0.348,0,0.655,0.064,0.922,0.191s0.521,0.308,0.762,0.543l0.24-0.25c-0.142-0.13-0.273-0.239-0.395-0.329
		c-0.122-0.089-0.26-0.173-0.416-0.252c-0.155-0.079-0.325-0.138-0.508-0.177c-0.183-0.039-0.383-0.059-0.598-0.059
		c-0.468,0-0.895,0.117-1.278,0.349c-0.384,0.233-0.682,0.546-0.894,0.939c-0.212,0.393-0.318,0.823-0.318,1.289
		C35.609,76.525,35.715,76.96,35.927,77.353L35.927,77.353z M42.36,78.541v-4.988h-0.372v4.988H42.36L42.36,78.541z M44.714,77.066
		c0.125,0.315,0.296,0.588,0.513,0.817c0.217,0.229,0.479,0.411,0.788,0.544c0.308,0.133,0.638,0.2,0.988,0.2
		c0.42,0,0.787-0.073,1.101-0.217c0.314-0.145,0.608-0.358,0.882-0.638l-0.251-0.257c-0.267,0.262-0.533,0.457-0.8,0.584
		c-0.267,0.128-0.573,0.191-0.918,0.191c-0.373,0-0.716-0.091-1.029-0.273c-0.313-0.182-0.565-0.432-0.755-0.751
		c-0.19-0.319-0.298-0.675-0.323-1.07h2.692v-0.341h-2.685c0.025-0.385,0.132-0.734,0.32-1.047c0.188-0.313,0.437-0.559,0.748-0.737
		c0.311-0.178,0.653-0.268,1.026-0.268c0.348,0,0.655,0.064,0.922,0.191c0.267,0.128,0.521,0.308,0.762,0.543l0.233-0.257
		c-0.292-0.269-0.581-0.471-0.866-0.607c-0.285-0.136-0.633-0.203-1.044-0.203c-0.352,0-0.684,0.068-0.995,0.205
		c-0.311,0.137-0.575,0.322-0.793,0.555c-0.218,0.233-0.39,0.508-0.515,0.826c-0.125,0.318-0.188,0.653-0.188,1.005
		C44.526,76.416,44.589,76.751,44.714,77.066L44.714,77.066z M51.211,78.541v-4.331l1.976,2.87h0.028l1.972-2.87v4.331h0.372v-4.988
		h-0.351l-2,2.95l-2.003-2.95h-0.348v4.988H51.211L51.211,78.541z M61.109,78.541v-1.27l1.242-1.252l2.052,2.522h0.484l-2.271-2.786
		l2.177-2.202h-0.504l-3.179,3.277v-3.277H60.74v4.988H61.109L61.109,78.541z M66.649,77.03c0.121,0.312,0.287,0.586,0.499,0.823
		c0.212,0.237,0.476,0.425,0.791,0.565c0.315,0.14,0.657,0.21,1.026,0.21c0.366,0,0.708-0.071,1.026-0.212
		c0.318-0.141,0.584-0.331,0.8-0.569c0.216-0.238,0.384-0.512,0.506-0.824s0.183-0.637,0.183-0.976c0-0.343-0.06-0.671-0.181-0.983
		c-0.121-0.312-0.287-0.586-0.501-0.821c-0.213-0.235-0.478-0.423-0.793-0.564c-0.315-0.14-0.657-0.21-1.026-0.21
		c-0.366,0-0.708,0.071-1.026,0.212c-0.318,0.142-0.584,0.331-0.798,0.567c-0.215,0.237-0.383,0.511-0.504,0.823
		c-0.122,0.312-0.183,0.637-0.183,0.976C66.468,76.39,66.528,76.718,66.649,77.03L66.649,77.03z M67.12,74.917
		c0.18-0.341,0.432-0.612,0.757-0.812c0.325-0.201,0.688-0.301,1.089-0.301c0.301,0,0.585,0.06,0.85,0.179
		c0.266,0.119,0.492,0.279,0.678,0.48c0.187,0.201,0.334,0.439,0.442,0.715c0.108,0.276,0.162,0.566,0.162,0.87
		c0,0.413-0.09,0.79-0.27,1.131c-0.18,0.341-0.433,0.612-0.758,0.812c-0.326,0.201-0.689,0.301-1.09,0.301
		c-0.401,0-0.765-0.101-1.092-0.303c-0.327-0.202-0.581-0.474-0.763-0.816c-0.182-0.342-0.273-0.717-0.273-1.125
		C66.851,75.635,66.94,75.258,67.12,74.917L67.12,74.917z M73.963,78.541v-4.644h2.744v-0.344h-3.113v4.988H73.963L73.963,78.541z
		 M78.609,78.541l0.633-1.395h2.943l0.633,1.395h0.407l-2.324-5.023h-0.355l-2.324,5.023H78.609L78.609,78.541z M80.717,73.925
		l1.311,2.884h-2.63L80.717,73.925L80.717,73.925z M85.499,78.541v-2.337h3.193v2.337h0.369v-4.988h-0.369v2.31h-3.193v-2.31h-0.369
		v4.988H85.499L85.499,78.541z M91.36,77.03c0.121,0.312,0.287,0.586,0.499,0.823c0.212,0.237,0.476,0.425,0.791,0.565
		c0.315,0.14,0.657,0.21,1.026,0.21c0.366,0,0.708-0.071,1.026-0.212c0.318-0.141,0.584-0.331,0.8-0.569
		c0.216-0.238,0.384-0.512,0.506-0.824c0.122-0.312,0.183-0.637,0.183-0.976c0-0.343-0.06-0.671-0.181-0.983
		c-0.121-0.312-0.288-0.586-0.501-0.821c-0.213-0.235-0.478-0.423-0.793-0.564c-0.315-0.14-0.657-0.21-1.026-0.21
		c-0.366,0-0.708,0.071-1.026,0.212c-0.318,0.142-0.584,0.331-0.798,0.567c-0.214,0.237-0.383,0.511-0.504,0.823
		c-0.122,0.312-0.183,0.637-0.183,0.976C91.179,76.39,91.239,76.718,91.36,77.03L91.36,77.03z M91.831,74.917
		c0.18-0.341,0.432-0.612,0.757-0.812c0.325-0.201,0.687-0.301,1.089-0.301c0.301,0,0.585,0.06,0.85,0.179
		c0.266,0.119,0.492,0.279,0.678,0.48c0.187,0.201,0.334,0.439,0.442,0.715c0.108,0.276,0.162,0.566,0.162,0.87
		c0,0.413-0.09,0.79-0.27,1.131c-0.18,0.341-0.432,0.612-0.758,0.812c-0.326,0.201-0.689,0.301-1.091,0.301
		s-0.765-0.101-1.092-0.303c-0.327-0.202-0.582-0.474-0.764-0.816c-0.182-0.342-0.273-0.717-0.273-1.125
		C91.561,75.635,91.651,75.258,91.831,74.917L91.831,74.917z M98.66,78.541v-4.331l1.976,2.87h0.028l1.972-2.87v4.331h0.372v-4.988
		h-0.351l-2,2.95l-2.004-2.95h-0.348v4.988H98.66L98.66,78.541z"/>
</g>
</svg>
